<?xml version="1.0" encoding="utf-8"?>
<!-- Generator: Adobe Illustrator 16.0.0, SVG Export Plug-In . SVG Version: 6.00 Build 0)  -->
<!DOCTYPE svg PUBLIC "-//W3C//DTD SVG 1.1//EN" "http://www.w3.org/Graphics/SVG/1.1/DTD/svg11.dtd">
<svg version="1.1" id="Layer_1" xmlns="http://www.w3.org/2000/svg" xmlns:xlink="http://www.w3.org/1999/xlink" x="0px" y="0px"
	 width="145.375px" height="39.709px" viewBox="0 0 145.375 39.709" enable-background="new 0 0 145.375 39.709"
	 xml:space="preserve">
<g>
	<path fill="#010101" d="M125.521,0c-10.964,0-19.854,8.889-19.854,19.854s8.89,19.854,19.854,19.854
		c10.966,0,19.854-8.889,19.854-19.854S136.487,0,125.521,0 M122.571,31.397c-0.014-0.006-0.033-0.011-0.052-0.015
		c-5.122-1.326-8.909-5.986-8.909-11.528V19.84c0.005-5.524,3.764-10.161,8.863-11.505c0.004,0,0.014-0.004,0.019-0.004
		c0.037-0.009,0.069-0.019,0.103-0.028c0.023-0.004,0.042-0.009,0.064-0.014c1.658-0.477,2.868-2.008,2.868-3.82
		c0-1.242-0.57-2.353-1.468-3.082c0.486-0.042,0.973-0.06,1.468-0.06c1.031,0,2.072,0.084,3.138,0.256
		c7.723,1.265,13.863,7.406,15.128,15.128c1.91,11.622-7.004,21.67-18.266,21.67c-0.486,0-0.972-0.019-1.468-0.062
		c0.893-0.728,1.468-1.839,1.468-3.081C125.527,33.394,124.27,31.844,122.571,31.397"/>
	<path fill="#010101" d="M99.042,32.201c-0.063-3.686-1.628-7.007-4.116-9.368c2.54-2.409,4.123-5.818,4.123-9.595
		c0-7.247-5.823-13.134-13.042-13.233l-9.458-0.003c-2.193,0-3.971,1.777-3.971,3.971v31.767c0,2.192,1.777,3.971,3.971,3.971
		c2.192,0,3.971-1.778,3.971-3.971V20.517c0,0,5.422,0,5.487,0.005c2.568,0.037,4.931,0.887,6.859,2.311h0.005
		c0.364,0.267,0.714,0.556,1.046,0.869c2.344,2.171,3.81,5.275,3.81,8.727h0.002v6.617c0,0.364,0.296,0.661,0.661,0.661
		c0.366,0,0.662-0.297,0.662-0.661v-6.751C99.051,32.263,99.046,32.232,99.042,32.201 M86.016,19.2l-5.497-0.005V1.326l5.487,0.004
		c6.49,0.098,11.72,5.393,11.72,11.907c0,3.451-1.466,6.556-3.81,8.727C91.731,20.265,88.99,19.242,86.016,19.2"/>
	<path fill="#010101" d="M33.092,0.664c0-0.366-0.297-0.662-0.662-0.662c-0.294,0-0.541,0.193-0.627,0.458h-0.001L20.073,33.907
		L7.648,2.467H7.644c-0.593-1.447-2.012-2.465-3.67-2.465C1.779,0.002,0,1.782,0,3.971c0,0.551,0.112,1.069,0.313,1.546
		l12.565,31.741c0.598,1.434,2.017,2.447,3.67,2.447c1.779,0,3.287-1.178,3.792-2.788l12.71-36.014l-0.004-0.001
		C33.074,0.828,33.092,0.748,33.092,0.664"/>
	<path fill="#010101" d="M31.566,39.043c0,0.365,0.297,0.662,0.662,0.662c0.294,0,0.541-0.193,0.626-0.459h0.001L44.584,5.801
		L57.009,37.24h0.005c0.593,1.447,2.012,2.466,3.67,2.466c2.195,0,3.974-1.78,3.974-3.969c0-0.552-0.112-1.07-0.313-1.547
		L51.78,2.449c-0.598-1.433-2.017-2.446-3.67-2.446c-1.779,0-3.287,1.176-3.792,2.787l-12.71,36.014l0.004,0.002
		C31.583,38.879,31.566,38.958,31.566,39.043"/>
</g>
</svg>
